<svg width="21.7725" height="34.385" version="1.1" viewBox="0 0 4.6085 7.2783" xmlns="http://www.w3.org/2000/svg" xmlns:xlink="http://www.w3.org/1999/xlink"><defs><linearGradient id="{{id_grad}}" x1="25.492" x2="25.557" y1="65.023" y2="44.643" gradientTransform="matrix(.33982 0 0 .33982 -6.3929 -14.983)" gradientUnits="userSpaceOnUse"><stop stop-color="{{colour_a}}" offset="0"/><stop stop-color="{{colour_b}}" offset="1"/></linearGradient><clipPath id="c"><path d="m40.048 68.631c-3.078-6.038-3.783-7.984-3.538-9.768 0.439-3.208 3.281-5.696 6.505-5.696 2.457 0 4.418 1.149 5.704 3.343 0.913 1.559 1.082 3.161 0.533 5.069-0.455 1.582-5.895 12.541-6.226 12.541-0.098 0-1.439-2.47-2.978-5.49zm4.445-7.594c1.168-1.168 0.58-3.06-1.079-3.477-1.301-0.326-2.675 1.155-2.368 2.554 0.345 1.572 2.28 2.09 3.448 0.922z" fill="none" stroke="#fff" stroke-linecap="round" stroke-linejoin="round" stroke-opacity=".321" stroke-width="1.39"/></clipPath></defs><path d="m0.086822 2.4041c-0.039079-1.2465 1.1491-2.3381 2.217-2.3254 1.6322 0.19404 2.5079 1.4466 2.1195 2.8589-0.15462 0.5376-2.0032 4.2617-2.1157 4.2617-0.66809-1.378-2.0406-3.2681-2.2211-4.7952zm2.7196 0.34866c0.79076-1.4035-1.3749-1.4731-1.1717-0.31331 0.11724 0.5342 0.77479 0.71022 1.1717 0.31331z" fill="url(#{{id_grad}})" stroke-width=".33982"/><path transform="matrix(.33982 0 0 .33982 -12.313 -17.988)" d="m40.048 68.631c-3.078-6.038-3.783-7.984-3.538-9.768 0.439-3.208 3.281-5.696 6.505-5.696 2.457 0 4.418 1.149 5.704 3.343 0.913 1.559 1.082 3.161 0.533 5.069-0.455 1.582-5.895 12.541-6.226 12.541-0.098 0-1.439-2.47-2.978-5.49zm4.445-7.594c1.168-1.168 0.58-3.06-1.079-3.477-1.301-0.326-2.675 1.155-2.368 2.554 0.345 1.572 2.28 2.09 3.448 0.922z" clip-path="url(#c)" fill="none" stroke="#fff" stroke-linecap="round" stroke-linejoin="round" stroke-opacity=".321" stroke-width="1.39"/><path d="m1.2962 5.334c-1.046-2.0518-1.2855-2.7131-1.2023-3.3194 0.14918-1.0901 1.115-1.9356 2.2105-1.9356 0.83494 0 1.5013 0.39045 1.9383 1.136 0.31026 0.52978 0.36769 1.0742 0.18112 1.7225-0.15462 0.5376-2.0032 4.2617-2.1157 4.2617-0.033302 0-0.489-0.83936-1.012-1.8656zm1.5105-2.5806c0.39691-0.39691 0.1971-1.0398-0.36667-1.1816-0.44211-0.11078-0.90902 0.39249-0.80469 0.8679 0.11724 0.5342 0.77479 0.71022 1.1717 0.31331z" fill="none" stroke="{{colour_dark}}" stroke-opacity=".956" stroke-width=".15802"/></svg>
